<svg width="143" height="51" viewBox="0 0 143 51" fill="none" xmlns="http://www.w3.org/2000/svg"><path d="M38.032 31.842a4.041 4.041 0 01-.891-.698 4.466 4.466 0 01-.678-.92 5.389 5.389 0 01-.459-1.1 6.666 6.666 0 01-.238-1.246 8.08 8.08 0 01-.013-1.352 9.37 9.37 0 01.187-1.294c1.026.522 2.126.883 3.261 1.07a9.91 9.91 0 001.605.13 8.97 8.97 0 001.799-.182 8.51 8.51 0 001.545-.452 7.68 7.68 0 001.405-.736c.437-.291.84-.63 1.202-1.01a6.789 6.789 0 001.592-2.776 7.06 7.06 0 00.266-1.587 7.727 7.727 0 00-.087-1.625 8.629 8.629 0 00-.425-1.618 9.541 9.541 0 00-.745-1.563 10.383 10.383 0 00-1.048-1.46 11.043 11.043 0 00-1.332-1.31 11.643 11.643 0 00-3.365-1.942 11.036 11.036 0 00-1.8-.499 10.38 10.38 0 00-1.788-.177 9.54 9.54 0 00-1.726.136 8.62 8.62 0 00-1.613.441 7.725 7.725 0 00-1.452.737 7.058 7.058 0 00-1.241 1.024 6.789 6.789 0 00-1.608 2.766 7.026 7.026 0 00-.274 1.546 7.68 7.68 0 00.065 1.586c.079.538.208 1.067.387 1.58a7.898 7.898 0 01.095.27c.18.486.403.955.665 1.403.273.467.583.912.928 1.33a11.27 11.27 0 002.59 2.29 9.406 9.406 0 01-1.025.805 8.083 8.083 0 01-1.177.665 6.679 6.679 0 01-1.198.416 5.39 5.39 0 01-1.183.152c-.38.007-.76-.034-1.13-.124a4.045 4.045 0 01-2.462-1.783 5.5 5.5 0 01-.765-1.85 12.073 12.073 0 012.849-10.15 11.979 11.979 0 013.724-2.824 12.082 12.082 0 016.772-1.129c.785.097 1.559.272 2.31.522a12.158 12.158 0 014.205 2.428 11.983 11.983 0 012.824 3.724 12.082 12.082 0 011.13 6.773 11.996 11.996 0 01-.523 2.309 12.166 12.166 0 01-2.365 4.134 11.975 11.975 0 01-3.54 2.772c-.66.34-1.35.619-2.06.832l-.009.002a5.243 5.243 0 01-1.12.113c-.724 0-1.437-.19-2.066-.549zm-7.813-15.517zm15.313 8.595z" fill="#614AE0"/><path d="M30.566 19.313a8.553 8.553 0 01-.387-1.58 7.68 7.68 0 01-.064-1.586 7.035 7.035 0 01.273-1.546 6.787 6.787 0 011.607-2.766c.374-.388.79-.732 1.241-1.025a7.717 7.717 0 011.452-.737 8.616 8.616 0 011.613-.441 9.549 9.549 0 011.725-.137c.6.008 1.199.067 1.788.178.614.115 1.216.282 1.801.499a11.643 11.643 0 013.364 1.942c.48.398.926.836 1.333 1.31.39.455.74.944 1.047 1.46.295.497.545 1.02.745 1.562a8.62 8.62 0 01.425 1.618 7.76 7.76 0 01.087 1.626 7.055 7.055 0 01-.266 1.587 6.786 6.786 0 01-1.592 2.775c-.361.38-.765.72-1.202 1.01-.441.294-.912.54-1.405.737a8.47 8.47 0 01-1.553.451c.456-.094.903-.23 1.335-.405a6.72 6.72 0 001.201-.636 5.838 5.838 0 001.827-1.94 5.76 5.76 0 00.566-1.355c.128-.471.2-.956.212-1.444.013-.5-.029-.999-.123-1.49a8.022 8.022 0 00-.443-1.49 9.192 9.192 0 00-.742-1.447 10.259 10.259 0 00-1.026-1.363 11.13 11.13 0 00-1.291-1.231 11.869 11.869 0 00-3.224-1.862 11.133 11.133 0 00-1.712-.5 10.267 10.267 0 00-1.693-.207 9.19 9.19 0 00-1.625.08 8.017 8.017 0 00-1.511.363 6.92 6.92 0 00-1.352.637c-.416.256-.8.56-1.144.906-.346.35-.645.743-.891 1.168a5.838 5.838 0 00-.767 2.552c-.029.453-.012.909.051 1.359.065.465.172.923.32 1.368z" fill="#614AE0"/><path d="M36.432 23.035a1.429 1.429 0 01-.618-.794 3.236 3.236 0 01-.144-1.274c-.18-.073-.361-.14-.537-.2a6.284 6.284 0 00-1.742-.36c.034-.149.09-.291.165-.424.173-.29.433-.52.742-.654.356-.155.74-.235 1.129-.233.215-.003.43.01.644.04a9.479 9.479 0 01.718-1.539 13.08 13.08 0 011.23-1.752c.45-.548.943-1.058 1.476-1.525.236-.205.483-.396.742-.573a4.4 4.4 0 01.697-.389c.468-.198.845-.22 1.12-.061.275.159.444.496.505 1 .028.265.032.532.01.798a7.844 7.844 0 01-.125.928 12.902 12.902 0 01-.582 2.041c-.247.671-.55 1.32-.903 1.942a9.487 9.487 0 01-.973 1.39c.132.17.251.35.356.539.196.335.32.708.363 1.094a1.61 1.61 0 01-.196.97c-.076.131-.172.25-.285.353a6.285 6.285 0 00-1.182-1.329 9.874 9.874 0 00-.442-.365 3.237 3.237 0 01-1.173.514 1.427 1.427 0 01-.995-.137zm2.966-5.058a.843.843 0 10-.844 1.461.843.843 0 00.844-1.46zM0 2.795A2.742 2.742 0 011.694.218 2.733 2.733 0 012.769 0h9.408a12.493 12.493 0 018.677 3.423 11.912 11.912 0 013.14 11.82 11.13 11.13 0 01-1.307 2.896c-.564.88-1.24 1.68-2.012 2.384a12.09 12.09 0 01-2.602 1.806l4.742 5.717c.282.26.5.58.641.936.135.338.2.7.193 1.064a3 3 0 01-.219 1.051 2.479 2.479 0 01-.615.897 2.673 2.673 0 01-.884.603 2.528 2.528 0 01-2.807-.603l-7.126-8.28H5.563v6.357c.001.37-.073.736-.218 1.077-.137.33-.342.627-.602.871a3.1 3.1 0 01-.885.577 2.696 2.696 0 01-1.09.218 2.879 2.879 0 01-1.961-.795 2.617 2.617 0 01-.589-.871A2.725 2.725 0 010 30.07V2.795zm5.563 2.769v12.561h6.665a6.94 6.94 0 004.717-1.807 6.25 6.25 0 001.421-1.961c.351-.755.53-1.578.526-2.41a5.953 5.953 0 00-.524-2.473 6.524 6.524 0 00-3.538-3.41 6.717 6.717 0 00-2.577-.5h-6.69zM85.85 19.855l7.868 8.31c.254.25.451.554.577.888.127.333.192.686.192 1.042 0 .357-.07.711-.205 1.042-.143.348-.362.66-.64.914a2.733 2.733 0 01-1.923.763c-.361 0-.719-.074-1.051-.216a2.478 2.478 0 01-.897-.648l-7.79-8.462-2.256 2.134v4.447a2.59 2.59 0 01-.218 1.055 2.63 2.63 0 01-.59.851c-.25.24-.54.433-.858.572a2.57 2.57 0 01-1.051.216 2.745 2.745 0 01-1.076-.216 3.052 3.052 0 01-.897-.572 2.695 2.695 0 01-.616-.851 2.469 2.469 0 01-.23-1.055V2.7a2.468 2.468 0 01.23-1.054c.148-.321.357-.61.616-.851a3.04 3.04 0 01.897-.572 2.74 2.74 0 011.076-.216c.374-.004.745.07 1.09.216a2.672 2.672 0 011.435 1.422c.145.332.22.691.217 1.054v15.683l8.988-8.78a2.45 2.45 0 01.845-.559c.302-.117.624-.177.948-.177a2.7 2.7 0 011.037.216c.364.154.692.383.961.673.25.262.45.568.59.902.135.322.2.668.192 1.017a2.82 2.82 0 01-.218 1.016 2.485 2.485 0 01-.615.877l-6.628 6.289zm-22.827 0l7.869 8.31c.254.25.45.554.577.888.127.333.192.686.192 1.042 0 .357-.07.711-.205 1.042-.144.348-.362.66-.64.914a2.733 2.733 0 01-1.923.763c-.362 0-.72-.074-1.051-.216a2.478 2.478 0 01-.897-.648l-7.79-8.462-2.256 2.134v4.447a2.59 2.59 0 01-.218 1.055 2.63 2.63 0 01-.59.851c-.25.24-.54.433-.858.572a2.57 2.57 0 01-1.051.216 2.745 2.745 0 01-1.077-.216 3.052 3.052 0 01-.897-.572 2.697 2.697 0 01-.615-.851 2.469 2.469 0 01-.23-1.055V2.7a2.468 2.468 0 01.23-1.054c.147-.321.356-.61.615-.851.264-.242.567-.435.897-.572.34-.144.707-.217 1.077-.216.374-.004.744.07 1.089.216a2.671 2.671 0 011.435 1.422c.146.332.22.691.218 1.054v15.683l8.987-8.78a2.45 2.45 0 01.846-.559c.302-.117.624-.177.948-.177a2.7 2.7 0 011.037.216c.364.154.692.383.96.673.251.262.45.568.59.902.135.322.2.668.192 1.017a2.82 2.82 0 01-.217 1.016 2.485 2.485 0 01-.615.877l-6.629 6.289zm38.542 12.007a12.106 12.106 0 01-3.855-2.599 12.126 12.126 0 01-2.599-3.855 12.05 12.05 0 01-.952-4.72 12.047 12.047 0 012.071-6.78 12.197 12.197 0 015.336-4.394 12.044 12.044 0 014.72-.952 12.046 12.046 0 016.78 2.071 12.226 12.226 0 013.276 3.276 12.017 12.017 0 012.052 6.099 2.625 2.625 0 01-.756 2.186 2.627 2.627 0 01-1.87.774h-15.749a6.819 6.819 0 001.613 2.556 6.81 6.81 0 004.836 2.003 6.792 6.792 0 003.591-1.017c.988-.61 1.228-.989 2.062-.989a2.643 2.643 0 011.548 4.788 12.137 12.137 0 01-2.664 1.554 12.055 12.055 0 01-4.72.953 12.05 12.05 0 01-4.72-.954zM112.61 17.68a6.82 6.82 0 00-1.308-1.827 6.804 6.804 0 00-4.835-2.002 6.818 6.818 0 00-4.835 2.003 6.794 6.794 0 00-1.307 1.826h12.285zm16.347 14.178a12.62 12.62 0 01-4.003-2.608 12.379 12.379 0 01-1.538-1.801 12.041 12.041 0 01-1.161-2.068 11.74 11.74 0 01-.99-4.563V2.8a2.794 2.794 0 012.841-2.745 2.795 2.795 0 012.841 2.745v5.674h9.279a2.795 2.795 0 012.841 2.745 2.798 2.798 0 01-2.841 2.746h-9.279v7.488c.109.5.243.995.404 1.481a6.815 6.815 0 001.676 2.567 7.091 7.091 0 002.257 1.47 7.269 7.269 0 002.765.54 7.273 7.273 0 003.729-1.02c1.026-.613 1.275-.994 2.141-.994a2.701 2.701 0 012.746 2.654 2.627 2.627 0 01-1.138 2.152 12.75 12.75 0 01-2.766 1.56 12.91 12.91 0 01-4.902.956 12.894 12.894 0 01-4.902-.96z" fill="#614AE0"/><path d="M136.715 43.592c-1.684-.454-2.91-1.011-3.677-1.672a3.1 3.1 0 01-1.15-2.448 3.295 3.295 0 011.406-2.725c.937-.719 2.156-1.078 3.656-1.078a6.452 6.452 0 012.736.556 4.42 4.42 0 011.861 1.533c.433.628.663 1.374.66 2.137h-1.974a2.459 2.459 0 00-.859-1.989c-.573-.482-1.381-.723-2.424-.723-.968 0-1.723.2-2.265.599a1.948 1.948 0 00-.814 1.662 1.762 1.762 0 00.773 1.442c.514.393 1.391.752 2.628 1.078 1.008.239 1.984.6 2.904 1.078a4.297 4.297 0 011.555 1.374c.346.554.522 1.197.506 1.85a3.19 3.19 0 01-1.411 2.716c-.941.68-2.199 1.02-3.774 1.02a7.407 7.407 0 01-2.864-.55 4.78 4.78 0 01-2.05-1.51 3.522 3.522 0 01-.721-2.175h1.974a2.347 2.347 0 00.997 1.998c.664.489 1.552.733 2.664.733 1.036 0 1.83-.198 2.383-.594a1.89 1.89 0 00.829-1.62 1.85 1.85 0 00-.767-1.585c-.512-.374-1.439-.742-2.782-1.107zm-40.582 4.803h7.057v1.54h-9.032V35.67h1.974l.001 12.726zm17.713-2.184h-6.238l-1.401 3.724h-2.025l5.687-14.266h1.718l5.696 14.266h-2.014l-1.423-3.724zm-5.645-1.548h5.063l-2.538-6.672-2.525 6.672zm11.086 5.272V35.67h4.869c1.616 0 2.831.32 3.646.96.815.64 1.222 1.588 1.222 2.842.009.64-.2 1.263-.593 1.769-.423.533-.98.944-1.615 1.19a3.467 3.467 0 011.907 1.23c.472.62.719 1.381.701 2.16a3.749 3.749 0 01-1.299 3.018c-.866.73-2.091 1.096-3.673 1.096l-5.165.001zm1.964-6.672v5.132h3.242a3.208 3.208 0 002.162-.681 2.339 2.339 0 00.793-1.877c0-1.718-.975-2.577-2.925-2.577l-3.272.003zm0-1.51h2.966a3.206 3.206 0 002.061-.617 2.026 2.026 0 00.772-1.675c0-.784-.239-1.354-.716-1.71-.477-.356-1.203-.534-2.178-.533h-2.905v4.536z" fill="#D0C9F6"/></svg>